<?xml version="1.0" encoding="UTF-8"?>
<svg id="Layer_1" data-name="Layer 1" xmlns="http://www.w3.org/2000/svg" viewBox="0 0 84.14 72.44">
  <defs>
    <style>
      .cls-1 {
        fill: #fff;
      }
    </style>
  </defs>
  <path class="cls-1" d="m11.35,25c-.1-.9.66-1.59,1.34-2.08,4.08-2.91,8.41-5.35,12.92-7.29.49-1.26.97-2.53,1.48-3.79.72-1.78,1.48-3.6,1.61-5.52.14-1.92-.46-4.01-1.99-5.16-6.27-4.73-14.66,6.25-17.09,10.93C4.5,21.93,1.31,32.81.3,43.9c-.58,6.36-.75,14.9,3.54,20.15,2.42,2.96,6.03,1.98,7.81-1.13,1.95-3.42,2.2-8.35,3.09-12.16,1.04-4.46,2.2-8.9,3.48-13.3.91-3.15,1.91-6.28,2.94-9.4-2.55-.48-5.11-.96-7.66-1.44-.91-.17-2.03-.58-2.14-1.61Z"/>
  <path class="cls-1" d="m82.14,7.77c-6.27-4.73-14.65,6.25-17.09,10.93-5.13,9.85-8.32,20.73-9.33,31.81-.58,6.36-.75,14.9,3.54,20.15,2.42,2.96,6.03,1.98,7.81-1.13,1.95-3.42,2.2-8.35,3.09-12.16,1.04-4.46,2.2-8.9,3.48-13.3.91-3.15,1.91-6.28,2.94-9.4-2.55-.48-5.11-.96-7.66-1.44-.91-.17-2.03-.58-2.14-1.61-.1-.9.66-1.59,1.34-2.08,4.08-2.91,8.41-5.35,12.92-7.29.49-1.26.97-2.53,1.48-3.79.72-1.78,1.48-3.6,1.61-5.52.14-1.92-.46-4.01-1.99-5.16Z"/>
  <path class="cls-1" d="m40.99,29.8c2.42.73,7.09.22,7.05-3.18-.02-2.28-2.33-3.3-4.26-3.65-2.27-.42-5.61-.04-5.96,2.83-.23,1.94,1.42,3.49,3.16,4.01Z"/>
  <path class="cls-1" d="m52.97,30.97c-.97,1.48-1.79,3.04-2.34,4.7,0,0-.01.01-.02.02-2.32,3.26-6.32,3.51-9.98,3.27-4.52-.3-7.13-2.54-9.44-6.16,1.02-1.81,1.73-3.85,2.21-5.96.34-1.48-1.94-2.11-2.28-.63-.97,4.24-2.84,8.57-7.2,10.2-1.41.53-.8,2.81.63,2.28,1.54-.57,2.83-1.4,3.93-2.41-.42,7.41-2.31,14.82-2.05,22.24.16,4.54,2.35,9.47,7.52,9.7,5.53.25,9.36-5.09,11.47-9.51,1.4-2.93,2.52-5.96,3.35-9.09.55-2.07,1.22-4.09,1.89-6.1.46,1.28,1.07,2.52,1.67,3.76.66,1.37,2.7.17,2.04-1.19-1.16-2.39-2.29-4.6-2.01-7.34.25-2.43,1.32-4.56,2.64-6.58.84-1.27-1.21-2.46-2.04-1.19Zm-10.89,23.27c-.39,3.01-1.86,5.83-4.04,7.8-1.03.93-2.33,1.7-3.7,1.57-4.79-.46-4.73-7.94-3.11-11.11.97-1.91,2.72-3.55,4.5-1.48.75.87.76,2.17.72,3.34.57-1.07,1.18-2.18,2.18-2.81,1-.63,2.5-.57,3.15.46.41.64.39,1.47.29,2.23Z"/>
</svg>