<?xml version="1.0" encoding="UTF-8"?>
<svg id="Layer_1" data-name="Layer 1" xmlns="http://www.w3.org/2000/svg" viewBox="0 0 73.92 80.54">
  <defs>
    <style>
      .cls-1 {
        fill: #010101;
      }
    </style>
  </defs>
  <path class="cls-1" d="m32.59,29.44v-.5c.02-8.59-1.19-15-3.8-20.19C26.43,4.08,22.36.87,17.9.15c-3.85-.62-7.64.7-10.66,3.73C.95,10.16.07,20.57,0,28.94v.5c-.02,8.53,1.37,15.59,4.12,20.98,1.99,3.9,5.24,6.71,8.92,7.72,1.02.28,2.05.42,3.08.42,2.3,0,4.59-.69,6.76-2.06,8.55-5.41,9.63-18.03,9.7-27.05Zm-17.9,26.7c2.2-5.06,2.78-12.69,2.95-21.46.02-1.12-.57-2.17-1.54-2.73-2-1.15-3.94-2.39-5.84-3.84-.34-.26-.35-.79-.02-1.06l6.2-5.15c.74-.61,1.15-1.53,1.12-2.49-.23-7.01-.89-12.9-2.86-16.99.44-.06.88-.11,1.32-.11.5,0,1.01.04,1.52.12,3.74.6,7.18,3.35,9.2,7.36,2.44,4.85,3.58,10.94,3.56,19.22v.42c-.07,8.48-1.03,20.31-8.63,25.12-2.24,1.42-4.63,1.96-6.97,1.59Z"/>
  <path class="cls-1" d="m70.11,8.75c-2.35-4.67-6.42-7.88-10.88-8.6-3.85-.62-7.64.7-10.66,3.73-6.29,6.29-7.17,16.69-7.23,25.06v.5c-.02,8.53,1.37,15.59,4.12,20.98,1.99,3.9,5.24,6.71,8.92,7.72,1.02.28,2.05.42,3.08.42,2.3,0,4.59-.69,6.76-2.06,8.55-5.41,9.63-18.03,9.7-27.05v-.5c.02-8.59-1.19-15-3.8-20.19Zm1.5,20.68c-.06,8.48-1.02,20.31-8.63,25.12-2.24,1.42-4.63,1.96-6.97,1.59,2.2-5.06,2.78-12.69,2.95-21.46.02-1.12-.57-2.17-1.54-2.73-2-1.15-3.94-2.39-5.84-3.84-.34-.26-.35-.79-.02-1.06l6.2-5.15c.74-.61,1.15-1.53,1.12-2.49-.23-7.01-.89-12.9-2.86-16.99.44-.06.88-.11,1.32-.11.5,0,1.01.04,1.52.12,3.74.6,7.18,3.35,9.2,7.36,2.44,4.85,3.58,10.94,3.56,19.22v.42Z"/>
  <path class="cls-1" d="m27.05,58.93c-1.33,6.36,5.24,9.66,10.67,8.76,1.59-.26.92-2.68-.67-2.42-3.61.6-8.3-1.32-7.59-5.67.36-2.2,2.04-4.51,4.48-4.42,2.77.1,4.74,2.58,6.38,4.51,1.05,1.23,2.82-.55,1.77-1.77-2.31-2.72-5.3-5.76-9.23-5.17-3.1.46-5.21,3.26-5.82,6.19Z"/>
  <path class="cls-1" d="m61.43,74.94c-2.15,1.9-5.4,2.37-7.93.91-3.25-1.87-1.73-6.45.15-8.81,1-1.25-.77-3.04-1.77-1.77-2.15,2.7-3.8,7.21-2.05,10.39-8.18,3.41-20.36,3.56-27.54-2.15-.06-.91-.81-1.77-1.76-1.78-1.02-.01-1.93.71-1.99,1.77,0,.08,0,.17-.01.25-.06.98.75,1.98,1.77,1.99.22,0,.44-.03.64-.1,8.24,6.32,21.63,6,30.68,1.97,3.54,2.5,8.42,1.9,11.59-.9,1.21-1.07-.57-2.84-1.77-1.77Z"/>
  <path class="cls-1" d="m59.58,67.32c0-.08,0-.17.01-.25.04-.68-.61-1.25-1.25-1.25-.71,0-1.21.58-1.25,1.25,0,.08-.01.17-.01.25-.04.68.61,1.25,1.25,1.25.71,0,1.21-.58,1.25-1.25Z"/>
  <path class="cls-1" d="m63.32,72.07c0-.08,0-.17.01-.25.04-.68-.61-1.25-1.25-1.25-.71,0-1.21.58-1.25,1.25,0,.08-.01.17-.01.25-.04.68.61,1.25,1.25,1.25.71,0,1.21-.58,1.25-1.25Z"/>
  <path class="cls-1" d="m55.24,71.42c-1.61,0-1.62,2.51,0,2.51s1.62-2.51,0-2.51Z"/>
</svg>