<?xml version="1.0" encoding="UTF-8"?>
<svg id="Layer_1" data-name="Layer 1" xmlns="http://www.w3.org/2000/svg" viewBox="0 0 81.86 75.11">
  <defs>
    <style>
      .cls-1 {
        fill: #fff;
      }

      .cls-2 {
        fill: #010101;
      }
    </style>
  </defs>
  <path class="cls-2" d="m24.71,47.41c.16,0,.33-.04.49-.11.34-.16.58-.46.64-.83,1.73-9.12,2.71-21.57,2.49-31.72-.1-4.56-.74-10.16-4.82-13.1C19.35-1.33,13.51.11,10.12,2.98c-3.74,3.17-5.55,7.88-6.71,11.64C.67,23.49-.43,33.24.15,43.61c.02.35.2.67.48.87.28.2.65.27.98.17,7.37-2.07,16-1.07,22.54,2.61.17.1.37.15.56.15Zm-5.74-4.77c1.23-1.8,2.54-13.52,2.54-17.14,0-3.91-2-14.18-8.85-10.87-1.72.83-3.03,2.23-4.05,3.93l5.47,3.74c1.14.77.71,2.54-.65,2.72l-7.48.97c-.51,2.44-.8,4.88-1.02,6.94-.42,3.91-.44,7.27-.38,8.76-.73.11-1.46.24-2.18.4-.4-9.57.69-18.58,3.23-26.79,1.07-3.45,2.72-7.78,6-10.56,2.72-2.31,7.34-3.52,10.55-1.21,3.26,2.34,3.78,7.26,3.87,11.28.21,9.45-.64,20.91-2.17,29.71-1.55-.76-3.19-1.38-4.89-1.87Z"/>
  <path class="cls-2" d="m81.82,16.29h0c-.1-4.56-.74-10.17-4.82-13.1-4.16-2.99-10-1.55-13.38,1.33-3.74,3.17-5.55,7.88-6.71,11.64-2.75,8.87-3.84,18.62-3.26,29,.02.35.2.67.48.87.28.2.65.26.98.17,7.37-2.07,16-1.07,22.54,2.61.17.1.37.15.56.15.17,0,.33-.04.49-.11.34-.16.58-.46.64-.83,1.73-9.12,2.71-21.57,2.49-31.72Zm-4.47,29.76c-1.55-.76-3.19-1.38-4.89-1.87,1.23-1.8,2.54-13.52,2.54-17.14,0-3.91-2-14.18-8.85-10.87-1.72.83-3.03,2.23-4.05,3.93l5.47,3.74c1.14.77.71,2.54-.65,2.72l-7.48.97c-.51,2.44-.8,4.88-1.02,6.94-.42,3.91-.44,7.27-.38,8.76-.73.11-1.46.24-2.18.4-.4-9.58.69-18.58,3.23-26.79,1.07-3.45,2.72-7.78,6-10.56,2.72-2.31,7.34-3.52,10.55-1.21,3.26,2.34,3.78,7.26,3.87,11.28.21,9.45-.64,20.91-2.17,29.71Z"/>
  <path class="cls-2" d="m57.72,51.6c-5.87-3.42-13.85-5.57-20.55-4.52-6.31.99-16.13,4.36-19.9,10.3-1.33,2.09-1.82,4.98-.68,7.2.95,1.86,2.87,2.95,4.8,3.33,1.93.38,3.91.16,5.86.01,7.67-.58,15.4-.04,22.94,1.61,2.47.54,4.95,1.2,7.46,1.09,2.51-.11,5.13-1.12,6.64-3.31,1.8-2.63,1.59-6.44.11-9.29-1.48-2.85-4.02-4.88-6.68-6.42Zm-21.64,3.58c-.4,1.08-1.07,2.19-2.17,2.54-1.41.44-2.92-.63-3.51-1.98-.59-1.35-.57-2.93-.45-4.4,2.06-1.03,4.39-1.52,6.69-1.4.17,1.68.02,3.66-.56,5.25Zm13.22.55c-.59,1.35-2.1,2.42-3.51,1.98-1.1-.34-1.77-1.45-2.17-2.54-.58-1.59-.73-3.57-.56-5.25,2.3-.12,4.63.37,6.69,1.4.11,1.47.13,3.05-.45,4.4Z"/>
  <path class="cls-1" d="m29.95,51.34c-.11,1.47-.13,3.05.45,4.4.59,1.35,2.1,2.42,3.51,1.98,1.1-.34,1.77-1.45,2.17-2.54.58-1.59.73-3.57.56-5.25-2.3-.12-4.63.37-6.69,1.4Z"/>
  <path class="cls-1" d="m43.07,49.94c-.17,1.68-.02,3.66.56,5.25.4,1.08,1.07,2.19,2.17,2.54,1.41.44,2.92-.63,3.51-1.98.59-1.35.57-2.93.45-4.4-2.06-1.03-4.39-1.52-6.69-1.4Z"/>
  <path class="cls-2" d="m46.34,72.74c-5.66-2.88-11.7-2.16-17.77-1.2-1.63.26-.94,2.74.68,2.48,5.32-.85,10.79-1.6,15.79.94,1.47.75,2.78-1.47,1.3-2.22Z"/>
</svg>