<?xml version="1.0" encoding="UTF-8"?>
<svg id="Layer_1" data-name="Layer 1" xmlns="http://www.w3.org/2000/svg" viewBox="0 0 74.03 93.14">
  <defs>
    <style>
      .cls-1 {
        fill: #fff;
      }
    </style>
  </defs>
  <path class="cls-1" d="m13.36,51.53c1.75,1.41,4.09,2.2,6.39,2.2.55,0,1.1-.04,1.63-.14,3.81-.66,7.41-3.27,10.13-7.37,5.04-7.6,7.72-17.15,7.35-26.2-.21-5.2-2.35-14.71-9.04-17.31-2.76-1.07-5.84-.76-8.47.86-2.15,1.33-3.9,3.14-5.21,5.39-3.07,5.3-3.36,12.25-3.64,18.97-.19,4.55-.37,8.84-1.39,12.29-.56,1.87-.82,3.84-.75,5.53.1,2.25,1.16,4.3,2.99,5.78Zm-.03-10.65c1.1-3.73,1.29-8.16,1.48-12.85.27-6.44.54-13.11,3.33-17.91,1.13-1.95,2.57-3.45,4.42-4.59,1.23-.76,2.58-1.15,3.92-1.15.85,0,1.7.16,2.5.47,3.35,1.31,5.57,5.22,6.7,9.49-.52-1.02-1.14-1.98-1.91-2.82-2.33-2.57-6.61-3.56-7.99.53-.81,2.27-.69,6.34-.94,8.7-.04.41-.09.81-.14,1.22l4.13,1.21c1.84,1.1,1.12,3.92-1.02,4.01l-4.22.17c-.13.55-.25,1.09-.41,1.63-1.23,4.26-5.73,14.03.75,16.3,2.51.88,4.68,0,6.44-1.57-.25.42-.51.83-.78,1.23-1.37,2.06-4.3,5.64-8.6,6.38-2.16.37-4.52-.24-6.19-1.58-.93-.75-2.05-2.06-2.13-4.09-.06-1.44.17-3.14.66-4.77Z"/>
  <path class="cls-1" d="m47.07,49.45c1.75,1.41,4.09,2.2,6.39,2.2.55,0,1.1-.04,1.63-.14,3.81-.66,7.41-3.27,10.13-7.37,5.04-7.6,7.71-17.15,7.35-26.2-.21-5.2-2.35-14.71-9.04-17.31-2.76-1.07-5.84-.76-8.47.86-2.15,1.33-3.9,3.14-5.21,5.39-3.07,5.3-3.36,12.25-3.63,18.97-.19,4.55-.37,8.84-1.39,12.3-.55,1.87-.82,3.84-.75,5.53.1,2.25,1.16,4.3,2.99,5.78Zm-.04-10.65c1.1-3.73,1.29-8.16,1.48-12.85.27-6.44.54-13.1,3.33-17.91,1.13-1.95,2.57-3.45,4.42-4.59,2.01-1.24,4.35-1.49,6.42-.68,3.35,1.31,5.57,5.22,6.7,9.5-.52-1.02-1.14-1.98-1.91-2.82-2.33-2.57-6.61-3.56-7.99.53-.81,2.27-.69,6.34-.94,8.7-.04.41-.09.81-.14,1.22l4.13,1.21c1.84,1.1,1.12,3.92-1.02,4.01l-4.22.17c-.13.55-.25,1.09-.41,1.63-1.23,4.26-5.73,14.03.75,16.3,2.51.88,4.68,0,6.44-1.58-.25.42-.51.83-.78,1.24-1.37,2.06-4.3,5.64-8.6,6.38-2.15.37-4.52-.24-6.19-1.58-.93-.75-2.05-2.07-2.14-4.09-.06-1.44.17-3.14.66-4.78Z"/>
  <path class="cls-1" d="m37.14,40.13c-.68,4.09-2.86,8.01-5.99,10.74-.21.18-.43.37-.65.55-1.79,1.52-3.83,3.25-3.82,5.88,0,2.53,2.24,4.79,4.98,5.05.2.02.39.03.59.03,2.01,0,4.08-.95,5.76-2.65,1.55-1.58,2.56-3.49,3.54-5.34.3-.56.08-1.26-.48-1.55-.56-.29-1.26-.08-1.55.48-.9,1.7-1.82,3.46-3.14,4.79-1.34,1.36-3.02,2.09-4.5,1.95-1.54-.15-2.9-1.44-2.9-2.76,0-1.56,1.53-2.86,3.01-4.12.23-.19.45-.38.67-.57,3.57-3.12,5.97-7.41,6.74-12.09.1-.63-.32-1.22-.95-1.32-.64-.1-1.22.32-1.32.95Z"/>
  <path class="cls-1" d="m63.63,49.64c-4.1,0-8.41,3.46-11.86,6.23-1.43,1.15-2.77,2.23-3.77,2.78-6.01,3.36-12.22,5.14-17.95,5.14-6.38,0-11.85-2.18-16.25-6.48-1.6-1.56-3.23-2.36-4.84-2.36-.14,0-.28,0-.42.02-3.35.29-4.9,3.54-4.96,6.65-.03,1.52.22,3.2.69,4.59,1.3,3.86,3.78,7.61,7.58,11.45,4.01,4.05,8.92,7.06,14.22,8.71,3.21,1,6.59,1.5,10.04,1.5,6.59,0,12.95-1.81,18.38-5.23,5.26-3.31,9.61-8.17,12.57-14.05,1.72-3.42,6.29-12.5,1.19-17.14-1.33-1.21-2.89-1.82-4.64-1.82Zm-31.92,36.28c.03-.38.07-.75.14-1.12.36-2.11,2.3-5.21,4.83-3.44,1.26.88,1.59,2.58,1.74,4.01,0,.09.01.38.01.77-2.24.15-4.5.09-6.72-.21Zm-9.88-21.75c-.34,1.31-.87,2.58-1.59,3.73-1.13,1.82-4.09,3.96-5.77,1.37-.83-1.29-.5-2.99-.1-4.37.08-.28.93-2.31,1.62-3.64,1.86,1.27,3.82,2.23,5.84,2.91Zm11.53,1.11c.12,1.04.12,2.09,0,3.13-.26,2.13-2.05,5.31-4.66,3.67-1.3-.82-1.71-2.5-1.93-3.92-.04-.23-.1-1.6-.09-2.9,2.2.27,4.44.26,6.69.02Zm12.09-3.45c.47,1.16.78,2.39.91,3.64.22,2.13-.81,5.64-3.73,4.61-1.45-.51-2.23-2.06-2.76-3.39-.08-.2-.4-1.37-.67-2.56,2.12-.6,4.22-1.37,6.24-2.3Zm10.19-6.87c1.01.86,1.92,1.86,2.63,2.98,1.15,1.81,1.79,5.41-1.27,5.79-1.52.19-2.91-.84-3.98-1.8-.22-.19-1.62-1.77-2.51-2.96,1.5-1.12,3.27-2.63,5.13-4.02Zm-34.34,25.26c-.07.17-.48.95-.98,1.82-1.97-1.12-3.83-2.44-5.53-3.93.29-.51.61-1,.97-1.46,1.31-1.7,4.47-3.52,5.88-.78.7,1.36.2,3.03-.34,4.36Zm32.34,1.02c-1.15.72-2.34,1.36-3.57,1.92-.55-.76-1.03-1.57-1.4-2.43-.86-1.96-.94-5.62,2.15-5.53,1.53.04,2.75,1.28,3.66,2.39.13.16.75,1.11,1.35,2.12-.71.54-1.43,1.05-2.18,1.53Z"/>
  <path class="cls-1" d="m8.36,52.71c1.33.18,1.5-1.89.17-2.07-3.78-.52-7.65,2.92-8.5,6.46-.31,1.29,1.64,2.02,1.95.72.64-2.68,3.45-5.51,6.38-5.11Z"/>
  <path class="cls-1" d="m66.32,45.76c-1.34-.02-1.34,2.06,0,2.08,3.05.04,5.82,2.99,5.62,6.03-.09,1.34,1.99,1.33,2.08,0,.27-4.18-3.58-8.05-7.7-8.11Z"/>
  <path class="cls-1" d="m48.73,89.32c-4.51,1.99-10.65,2.11-15.43,1.28-1.31-.23-1.87,1.78-.55,2.01,5.4.94,11.94.76,17.03-1.49,1.22-.54.16-2.33-1.05-1.8Z"/>
</svg>