<?xml version="1.0" encoding="UTF-8"?>
<svg id="Layer_1" data-name="Layer 1" xmlns="http://www.w3.org/2000/svg" viewBox="0 0 81.35 79.65">
  <defs>
    <style>
      .cls-1 {
        fill: #fff;
      }
    </style>
  </defs>
  <path class="cls-1" d="m21.66,49.89c.72,1.54,2.99.2,2.28-1.33-1.23-2.64-3.14-4.71-5.54-5.99.24-3.36.87-6.79,2.08-9.94.2-.52.42-1.03.66-1.53-1.45-.65-2.83-1.47-4.1-2.42-.57-.42-.45-1.31.2-1.58,2.23-.95,4.66-1.4,7.08-1.34.58-.86,1.17-1.71,1.75-2.58,1.08-1.6,2.02-3.44,1.91-5.37-.16-2.7-2.75-4.15-5.27-4.41-.69-.07-1.37-.05-1.99.05-3.85.65-6.91,3.76-9.09,6.8-2.51,3.5-4.24,7.55-5.06,11.78-.6,3.12-1.14,6.85-.51,10.11-2.07.88-3.92,2.31-5.71,4.34-1.12,1.27.74,3.14,1.87,1.87,2.76-3.14,5.43-4.69,9.8-4.62,4.51.08,7.75,2.08,9.65,6.15Z"/>
  <path class="cls-1" d="m10.32,14.64c2.5-5.64,9.07-11.15,15.3-11.84,9.82-1.09,12.69,9,9.22,16.61-.7,1.53,1.57,2.88,2.28,1.33,3.26-7.15,2.5-17.65-6.21-20.22C22.05-2.08,11.51,5.47,8.04,13.31c-.68,1.54,1.59,2.88,2.28,1.33Z"/>
  <path class="cls-1" d="m65.17,16.83c-.69-.07-1.37-.05-1.99.05-3.85.65-6.91,3.76-9.09,6.8-2.51,3.5-4.24,7.55-5.06,11.78-.6,3.12-1.14,6.85-.51,10.11-2.07.88-3.92,2.31-5.71,4.34-1.12,1.27.74,3.14,1.87,1.87,2.76-3.14,5.43-4.69,9.8-4.62,4.51.08,7.75,2.08,9.65,6.15.72,1.54,2.99.2,2.28-1.33-1.23-2.64-3.14-4.71-5.54-5.99.24-3.36.87-6.79,2.08-9.94.2-.52.42-1.03.66-1.53-1.45-.65-2.83-1.47-4.1-2.42-.57-.42-.45-1.31.2-1.58,2.23-.95,4.66-1.4,7.08-1.34.58-.86,1.17-1.71,1.75-2.58,1.08-1.6,2.02-3.44,1.91-5.37-.16-2.7-2.75-4.15-5.27-4.41Z"/>
  <path class="cls-1" d="m73.36,3.96c-8.84-2.61-19.38,4.94-22.85,12.78-.68,1.54,1.59,2.88,2.28,1.33,2.5-5.64,9.07-11.15,15.3-11.84,9.82-1.09,12.69,9,9.22,16.61-.7,1.53,1.57,2.88,2.28,1.33,3.26-7.15,2.5-17.65-6.21-20.22Z"/>
  <path class="cls-1" d="m34.77,49.61c1.68.22,1.66-2.42,0-2.64-2.58-.34-5.5-.88-7.83.57-1.93,1.2-3.53,3.36-3.64,5.68-.31,6.26,7.43,7.21,12,7.32,1.7.04,1.7-2.59,0-2.64-2.98-.08-9.89-.27-9.31-4.83.57-4.5,5.61-3.9,8.79-3.47Z"/>
  <path class="cls-1" d="m64.6,65.53c-2.33,0-5.14-2.24-5.2-4.67-.04-1.69-2.68-1.7-2.64,0,.04,1.51.67,2.95,1.65,4.16-8.34,16.25-42.01,16.51-47.42-2.24,1.67-.91,3.04-2.34,3.59-4.11.5-1.62-2.04-2.32-2.54-.7-.72,2.32-4.02,3.72-6.26,3.1-1.64-.45-2.34,2.09-.7,2.54,1.09.3,2.28.3,3.43.07,6.01,20.53,42.27,20.9,51.93,3.15,1.27.83,2.73,1.33,4.18,1.33,1.7,0,1.7-2.64,0-2.64Z"/>
</svg>