<?xml version="1.0" encoding="UTF-8"?>
<svg id="Layer_1" data-name="Layer 1" xmlns="http://www.w3.org/2000/svg" viewBox="0 0 89.99 68.87">
  <defs>
    <style>
      .cls-1 {
        fill: #fff;
      }
    </style>
  </defs>
  <path class="cls-1" d="m37.17,34.47c0-6.95-.98-12.48-2.92-16.61l7.57-5.58c1.22-.9-.18-2.8-1.4-1.9l-7.29,5.38c-.95-1.51-2.08-2.76-3.36-3.77l3.99-7.56c.71-1.35-1.38-2.45-2.09-1.1l-3.88,7.35c-1.64-.87-3.5-1.41-5.56-1.64V1.14c0-1.52-2.36-1.52-2.36,0v7.78c-1.98.06-3.84.53-5.53,1.41l-3.7-7.01c-.71-1.34-2.8-.24-2.09,1.1l3.8,7.19c-.38.3-.75.61-1.11.96-.88.85-1.68,1.83-2.41,2.92L1.87,10.38c-1.22-.9-2.63,1-1.4,1.9l7.15,5.28c-2.24,4.38-3.43,10.17-3.43,16.91,0,11.22,2.72,19.31,7.68,23.54l-1.9,6.85c-.41,1.47,1.87,2.1,2.28.63l1.67-6.03c1.24.72,2.59,1.23,4.04,1.54v6.73c0,1.52,2.36,1.52,2.36,0v-6.4c.1,0,.2.03.31.03.22,0,.43.01.64.01,1.1,0,2.15-.13,3.15-.36l1.37,4.95c.41,1.46,2.68.84,2.28-.63l-1.41-5.07c1.31-.58,2.51-1.39,3.6-2.43,5.7-5.48,6.9-15.73,6.9-23.37Zm-11.4,9.61c-2.43-.45-4.79-1.66-7.09-2.56,2.35-.52,5.22-.47,7.57-.99,2.31-9.62,1.17-19.98-2.93-28.98,7.76,1.59,11.55,9.11,11.55,22.93,0,10.16-2.2,17.87-6.19,21.71-2.13,2.04-4.82,3.03-7.95,2.89-.1,0-.19-.02-.29-.02,4.07-3.71,6.54-9.76,5.33-14.96Z"/>
  <path class="cls-1" d="m88.12,10.38l-7.29,5.38c-.95-1.51-2.08-2.76-3.36-3.77l3.99-7.56c.71-1.35-1.38-2.45-2.09-1.1l-3.88,7.35c-1.64-.87-3.5-1.41-5.56-1.64V1.14c0-1.52-2.36-1.52-2.36,0v7.78c-1.99.06-3.84.53-5.53,1.41l-3.7-7.01c-.71-1.34-2.8-.24-2.09,1.1l3.8,7.19c-.38.3-.75.61-1.11.96-.88.85-1.68,1.83-2.41,2.92l-6.95-5.12c-1.22-.9-2.63,1-1.4,1.9l7.15,5.28c-2.24,4.38-3.43,10.17-3.43,16.91,0,11.22,2.72,19.31,7.68,23.54l-1.9,6.85c-.41,1.47,1.87,2.1,2.28.63l1.67-6.03c1.24.72,2.59,1.23,4.04,1.54v6.73c0,1.52,2.36,1.52,2.36,0v-6.4c.1,0,.2.03.31.03.22,0,.43.01.64.01,1.1,0,2.15-.13,3.15-.36l1.37,4.95c.41,1.46,2.68.84,2.28-.63l-1.41-5.07c1.31-.58,2.51-1.39,3.6-2.43,5.7-5.48,6.9-15.73,6.9-23.37,0-6.95-.98-12.48-2.92-16.61l7.57-5.58c1.22-.9-.18-2.8-1.4-1.9Zm-14.65,33.7c-2.43-.45-4.79-1.66-7.09-2.56,2.35-.52,5.22-.47,7.57-.99,2.31-9.62,1.17-19.98-2.93-28.98,7.76,1.59,11.55,9.11,11.55,22.93,0,10.16-2.2,17.87-6.19,21.71-2.13,2.04-4.82,3.03-7.95,2.89-.1,0-.2-.02-.29-.02,4.07-3.71,6.54-9.76,5.33-14.96Z"/>
</svg>