<?xml version="1.0" encoding="UTF-8"?>
<svg id="Layer_1" data-name="Layer 1" xmlns="http://www.w3.org/2000/svg" viewBox="0 0 89.99 83.41">
  <defs>
    <style>
      .cls-1 {
        fill: #fff;
      }

      .cls-2 {
        fill: #010101;
      }
    </style>
  </defs>
  <path class="cls-1" d="m20.43,59.04c.1,0,.19.02.29.02,3.13.14,5.82-.85,7.95-2.89,3.99-3.83,6.19-11.54,6.19-21.71,0-13.82-3.8-21.34-11.55-22.93,4.1,9,5.24,19.36,2.93,28.98-2.35.52-5.22.47-7.57.99,2.3.9,4.67,2.11,7.09,2.56,1.21,5.21-1.26,11.25-5.33,14.96Z"/>
  <path class="cls-2" d="m37.17,34.47c0-6.95-.98-12.48-2.92-16.61l7.57-5.58c1.22-.9-.18-2.8-1.4-1.9l-7.29,5.38c-.95-1.51-2.08-2.76-3.36-3.77l3.99-7.56c.71-1.35-1.38-2.45-2.09-1.1l-3.88,7.35c-1.64-.87-3.5-1.41-5.56-1.64V1.14c0-1.52-2.36-1.52-2.36,0v7.78c-1.98.06-3.84.53-5.53,1.41l-3.7-7.01c-.71-1.34-2.8-.24-2.09,1.1l3.8,7.19c-.38.3-.75.61-1.11.96-.88.85-1.68,1.83-2.41,2.92L1.87,10.38c-1.22-.9-2.63,1-1.4,1.9l7.15,5.28c-2.24,4.38-3.43,10.17-3.43,16.91,0,11.22,2.72,19.31,7.68,23.54l-1.9,6.85c-.41,1.47,1.87,2.1,2.28.63l1.67-6.03c1.24.72,2.59,1.23,4.04,1.54v6.73c0,1.52,2.36,1.52,2.36,0v-6.4c.1,0,.2.03.31.03.22,0,.43.01.64.01,1.1,0,2.15-.13,3.15-.36l1.37,4.95c.41,1.46,2.68.84,2.28-.63l-1.41-5.07c1.31-.58,2.51-1.39,3.6-2.43,5.7-5.48,6.9-15.73,6.9-23.37Zm-11.4,9.61c-2.43-.45-4.79-1.66-7.09-2.56,2.35-.52,5.22-.47,7.57-.99,2.31-9.62,1.17-19.98-2.93-28.98,7.76,1.59,11.55,9.11,11.55,22.93,0,10.16-2.2,17.87-6.19,21.71-2.13,2.04-4.82,3.03-7.95,2.89-.1,0-.19-.02-.29-.02,4.07-3.71,6.54-9.76,5.33-14.96Z"/>
  <path class="cls-2" d="m88.12,10.38l-7.29,5.38c-.95-1.51-2.08-2.76-3.36-3.77l3.99-7.56c.71-1.35-1.38-2.45-2.09-1.1l-3.88,7.35c-1.64-.87-3.5-1.41-5.56-1.64V1.14c0-1.52-2.36-1.52-2.36,0v7.78c-1.99.06-3.84.53-5.53,1.41l-3.7-7.01c-.71-1.34-2.8-.24-2.09,1.1l3.8,7.19c-.38.3-.75.61-1.11.96-.88.85-1.68,1.83-2.41,2.92l-6.95-5.12c-1.22-.9-2.63,1-1.4,1.9l7.15,5.28c-2.24,4.38-3.43,10.17-3.43,16.91,0,11.22,2.72,19.31,7.68,23.54l-1.9,6.85c-.41,1.47,1.87,2.1,2.28.63l1.67-6.03c1.24.72,2.59,1.23,4.04,1.54v6.73c0,1.52,2.36,1.52,2.36,0v-6.4c.1,0,.2.03.31.03.22,0,.43.01.64.01,1.1,0,2.15-.13,3.15-.36l1.37,4.95c.41,1.46,2.68.84,2.28-.63l-1.41-5.07c1.31-.58,2.51-1.39,3.6-2.43,5.7-5.48,6.9-15.73,6.9-23.37,0-6.95-.98-12.48-2.92-16.61l7.57-5.58c1.22-.9-.18-2.8-1.4-1.9Zm-14.65,33.7c-2.43-.45-4.79-1.66-7.09-2.56,2.35-.52,5.22-.47,7.57-.99,2.31-9.62,1.17-19.98-2.93-28.98,7.76,1.59,11.55,9.11,11.55,22.93,0,10.16-2.2,17.87-6.19,21.71-2.13,2.04-4.82,3.03-7.95,2.89-.1,0-.2-.02-.29-.02,4.07-3.71,6.54-9.76,5.33-14.96Z"/>
  <path class="cls-1" d="m68.14,59.04c.1,0,.19.02.29.02,3.12.14,5.82-.85,7.95-2.89,3.99-3.83,6.19-11.54,6.19-21.71,0-13.82-3.8-21.34-11.55-22.93,4.1,9,5.24,19.36,2.93,28.98-2.35.52-5.22.47-7.57.99,2.3.9,4.67,2.11,7.09,2.56,1.21,5.21-1.26,11.25-5.33,14.96Z"/>
  <path class="cls-2" d="m40.91,51.13c-.62,2.32-2.22,4.29-2.49,6.71-.24,2.12.73,4.41,2.54,5.6,3.64,2.4,7.24-1.84,8.13-5.08.4-1.47-1.87-2.09-2.28-.63-.69,2.5-3.91,6.13-5.72,2.27-1.28-2.74,1.4-5.66,2.09-8.26.39-1.47-1.89-2.1-2.28-.63Z"/>
  <path class="cls-2" d="m53.97,71.15c-.5.64-.9,1.39-1.19,2.18-.8.39-1.62.7-2.45.94-.37-1.72-1.42-3.37-3.37-3.47-1.53-.07-2.51.91-3.07,2.14-.56-1.23-1.54-2.22-3.07-2.14-1.96.09-3,1.76-3.37,3.49-.81-.12-1.61-.25-2.4-.37-.01,0-.03,0-.04,0-.31-1.03-.78-2.04-1.38-3-.81-1.28-2.85-.1-2.04,1.19,1.24,1.98,1.86,4.09,1.3,6.41-.36,1.48,1.92,2.11,2.28.63.23-.95.3-1.88.26-2.8.61.09,1.21.19,1.83.28-.2,3.45,2.31,6.34,6.03,6.76.19.02.38.02.56.02.02,0,.03,0,.05,0,.02,0,.03,0,.05,0,.18,0,.37,0,.56-.03,3.72-.42,6.23-3.3,6.03-6.75.6-.15,1.2-.34,1.79-.56.04.92.26,1.83.75,2.64.78,1.3,2.82.12,2.04-1.19-.83-1.39-.45-3.47.52-4.71.93-1.18-.73-2.87-1.67-1.67Z"/>
</svg>