<?xml version="1.0" encoding="UTF-8"?>
<svg id="Layer_1" data-name="Layer 1" xmlns="http://www.w3.org/2000/svg" viewBox="0 0 91.7 72.75">
  <defs>
    <style>
      .cls-1 {
        fill: #010101;
      }
    </style>
  </defs>
  <path class="cls-1" d="m28.79,49.08c7.48-2.64,8.7-14.2,9.8-20.74.04-.27.08-.53.13-.8-4.36-.5-9.34-1.52-8.64-3.33.54-1.41,5.47-3.49,9.66-4.93.02-.32.06-.64.08-.96,1.56-7.33,2.34-16.87-4.89-18.21-9.34-1.73-14.84,17.03-16.11,23.4-1.25,6.32-1.82,13.71.71,19.81,1.58,3.8,4.81,7.34,9.26,5.77Z"/>
  <path class="cls-1" d="m72.88,49.08c7.48-2.64,8.7-14.2,9.8-20.74.04-.27.08-.53.13-.8-4.36-.5-9.34-1.52-8.64-3.33.54-1.41,5.47-3.49,9.66-4.93.02-.32.06-.64.08-.96,1.56-7.33,2.34-16.87-4.89-18.21-9.34-1.73-14.84,17.03-16.11,23.4-1.25,6.32-1.82,13.71.71,19.81,1.58,3.8,4.81,7.34,9.26,5.77Z"/>
  <path class="cls-1" d="m84.69,59.7c-1.78-.8-3.15-2.47-3.78-4.58-.62-2.11-.38-4.26.68-5.9.34-.53.19-1.25-.34-1.59-.53-.34-1.25-.19-1.59.34-1.29,2.01-1.68,4.55-1.12,7.07-.28-.01-.56.06-.79.25-8.51,6.94-19.67,10.58-30.63,9.98-10.63-.58-21-5.14-28.65-12.54.92-2.29,1.37-4.77,1.26-7.23-.03-.63-.55-1.15-1.2-1.1-.63.03-1.13.56-1.1,1.2.09,2.14-.3,4.29-1.1,6.28-.07.05-.15.08-.22.14-.28.28-.37.66-.3,1.02-.73,1.46-1.68,2.82-2.84,3.97-.45.45-.45,1.18,0,1.63.22.23.52.34.82.34s.59-.11.81-.34c1.11-1.1,2.04-2.37,2.81-3.73,7.98,7.48,18.66,12.07,29.59,12.66.82.04,1.63.07,2.45.07,10.72,0,21.45-3.78,29.76-10.56,0,0,0,0,0,0,.95,2.13,2.55,3.82,4.55,4.72.15.07.31.1.47.1.44,0,.86-.25,1.05-.68.26-.58,0-1.26-.58-1.52Z"/>
  <path class="cls-1" d="m54.97,69.72c-4.26,1.22-9.03.9-13.08-.89-.58-.26-1.26,0-1.52.59-.26.58,0,1.26.59,1.52,2.72,1.2,5.74,1.81,8.74,1.81,2,0,4-.27,5.9-.82.61-.18.96-.81.79-1.42-.18-.61-.82-.96-1.42-.79Z"/>
  <path class="cls-1" d="m9.5,40.21c-2.03,0-2.03,3.15,0,3.15s2.03-3.15,0-3.15Z"/>
  <path class="cls-1" d="m1.52,42.31c-2.03,0-2.03,3.15,0,3.15s2.03-3.15,0-3.15Z"/>
  <path class="cls-1" d="m7.4,49.45c-2.03,0-2.03,3.15,0,3.15s2.03-3.15,0-3.15Z"/>
  <path class="cls-1" d="m90.13,42.73c-.85.04-1.57.69-1.57,1.57v.84c0,.82.72,1.61,1.57,1.57.85-.04,1.57-.69,1.57-1.57v-.84c0-.82-.72-1.61-1.57-1.57Z"/>
  <path class="cls-1" d="m89.71,55.33c-2.03,0-2.03,3.15,0,3.15s2.03-3.15,0-3.15Z"/>
  <path class="cls-1" d="m42.95,50.23c-.5,0-.96-.33-1.1-.84-.41-1.45-.17-3.09.67-4.48.84-1.4,2.17-2.38,3.64-2.7,1.48-.32,3.09.03,4.43.96,1.34.93,2.23,2.32,2.45,3.81.09.63-.34,1.21-.97,1.3-.63.1-1.21-.34-1.3-.97-.13-.87-.67-1.69-1.49-2.26-.82-.57-1.78-.79-2.64-.6-.86.18-1.64.78-2.15,1.63s-.67,1.83-.43,2.67c.17.61-.18,1.25-.79,1.42-.11.03-.21.05-.32.05Z"/>
</svg>